{
  "accessors": [
    {
      "bufferView": 2,
      "componentType": 5126,
      "count": 4098,
      "max": [
        2.684793472290039,
        2.408041477203369,
        8.705693244934082
      ],
      "min": [
        -3.078057289123535,
        -2.454676628112793,
        -0.13520407676696777
      ],
      "type": "VEC3"
    },
    {
      "bufferView": 2,
      "byteOffset": 49176,
      "componentType": 5126,
      "count": 4098,
      "max": [
        1.0,
        1.0,
        1.0
      ],
      "min": [
        -1.0,
        -1.0,
        -1.0
      ],
      "type": "VEC3"
    },
    {
      "bufferView": 1,
      "componentType": 5126,
      "count": 4098,
      "max": [
        0.9753978252410889,
        0.9448552131652832
      ],
      "min": [
        0.049203403294086456,
        0.029809102416038513
      ],
      "type": "VEC2"
    },
    {
      "bufferView": 0,
      "componentType": 5125,
      "count": 6246,
      "type": "SCALAR"
    },
    {
      "bufferView": 2,
      "byteOffset": 98352,
      "componentType": 5126,
      "count": 288,
      "max": [
        0.6531850695610046,
        -1.818464994430542,
        2.2072598934173584
      ],
      "min": [
        -0.6236622333526611,
        -2.0886154174804688,
        -0.006149825640022755
      ],
      "type": "VEC3"
    },
    {
      "bufferView": 2,
      "byteOffset": 101808,
      "componentType": 5126,
      "count": 288,
      "max": [
        0.9999107122421265,
        0.9923070073127747,
        0.9974356293678284
      ],
      "min": [
        -0.9999340176582336,
        -0.9998456835746765,
        -0.9974358081817627
      ],
      "type": "VEC3"
    },
    {
      "bufferView": 1,
      "byteOffset": 32784,
      "componentType": 5126,
      "count": 288,
      "max": [
        0.22908265888690948,
        0.2284894734621048
      ],
      "min": [
        0.017457732930779457,
        0.15126991271972656
      ],
      "type": "VEC2"
    },
    {
      "bufferView": 0,
      "byteOffset": 24984,
      "componentType": 5125,
      "count": 432,
      "type": "SCALAR"
    }
  ],
  "asset": {
    "extras": {
      "author": "lakos (https://sketchfab.com/lakos)",
      "license": "CC-BY-4.0 (http://creativecommons.org/licenses/by/4.0/)",
      "source": "https://sketchfab.com/3d-models/tw-p-bld-medium-house-01-d28b22fa1e0f4799b65e7fd89f423249",
      "title": "Tw P Bld Medium House 01"
    },
    "generator": "Sketchfab-12.68.0",
    "version": "2.0"
  },
  "bufferViews": [
    {
      "buffer": 0,
      "byteLength": 26712,
      "name": "floatBufferViews",
      "target": 34963
    },
    {
      "buffer": 0,
      "byteLength": 35088,
      "byteOffset": 26712,
      "byteStride": 8,
      "name": "floatBufferViews",
      "target": 34962
    },
    {
      "buffer": 0,
      "byteLength": 105264,
      "byteOffset": 61800,
      "byteStride": 12,
      "name": "floatBufferViews",
      "target": 34962
    }
  ],
  "buffers": [
    {
      "byteLength": 167064,
      "uri": "scene.bin"
    }
  ],
  "images": [
    {
      "uri": "textures/01_-_Default_baseColor.png"
    }
  ],
  "materials": [
    {
      "doubleSided": true,
      "name": "01_-_Default",
      "pbrMetallicRoughness": {
        "baseColorTexture": {
          "index": 0
        },
        "metallicFactor": 0.0,
        "roughnessFactor": 0.8929713596
      }
    },
    {
      "doubleSided": true,
      "name": "01_-_Default_0",
      "pbrMetallicRoughness": {
        "baseColorTexture": {
          "index": 0
        },
        "metallicFactor": 0.0,
        "roughnessFactor": 0.8929713596
      }
    }
  ],
  "meshes": [
    {
      "name": "TwP_bld_medium_House_01_01 - Default_0",
      "primitives": [
        {
          "attributes": {
            "NORMAL": 1,
            "POSITION": 0,
            "TEXCOORD_0": 2
          },
          "indices": 3,
          "material": 0,
          "mode": 4
        }
      ]
    },
    {
      "name": "TwP_prop_Door_014_01 - Default_0",
      "primitives": [
        {
          "attributes": {
            "NORMAL": 5,
            "POSITION": 4,
            "TEXCOORD_0": 6
          },
          "indices": 7,
          "material": 1,
          "mode": 4
        }
      ]
    }
  ],
  "nodes": [
    {
      "children": [
        1
      ],
      "matrix": [
        1.0,
        0.0,
        0.0,
        0.0,
        0.0,
        2.220446049250313e-16,
        -1.0,
        0.0,
        0.0,
        1.0,
        2.220446049250313e-16,
        0.0,
        0.0,
        0.0,
        0.0,
        1.0
      ],
      "name": "Sketchfab_model"
    },
    {
      "children": [
        2
      ],
      "matrix": [
        1.0,
        0.0,
        0.0,
        0.0,
        0.0,
        0.0,
        1.0,
        0.0,
        0.0,
        -1.0,
        0.0,
        0.0,
        0.0,
        0.0,
        0.0,
        1.0
      ],
      "name": "505eed6fe44f41acac30659171508dd8.fbx"
    },
    {
      "children": [
        3,
        5
      ],
      "name": "RootNode"
    },
    {
      "children": [
        4
      ],
      "matrix": [
        1.0,
        0.0,
        0.0,
        0.0,
        0.0,
        2.220446049250313e-16,
        -1.0,
        0.0,
        0.0,
        1.0,
        2.220446049250313e-16,
        0.0,
        0.0,
        0.0,
        0.0,
        1.0
      ],
      "name": "TwP_bld_medium_House_01"
    },
    {
      "mesh": 0,
      "name": "TwP_bld_medium_House_01_01 - Default_0"
    },
    {
      "children": [
        6
      ],
      "matrix": [
        0.9999999999999847,
        3.970466940254533e-23,
        -1.7484555314694902e-07,
        0.0,
        -1.7484555314694902e-07,
        3.3306690738754696e-16,
        -0.9999999999999847,
        0.0,
        3.970466940254533e-23,
        1.0,
        3.3306690738754696e-16,
        0.0,
        0.0,
        0.0,
        0.0,
        1.0
      ],
      "name": "TwP_prop_Door_014"
    },
    {
      "mesh": 1,
      "name": "TwP_prop_Door_014_01 - Default_0"
    }
  ],
  "samplers": [
    {
      "magFilter": 9729,
      "minFilter": 9987,
      "wrapS": 10497,
      "wrapT": 10497
    }
  ],
  "scene": 0,
  "scenes": [
    {
      "name": "Sketchfab_Scene",
      "nodes": [
        0
      ]
    }
  ],
  "textures": [
    {
      "sampler": 0,
      "source": 0
    }
  ]
}
