{
  "accessors": [
    {
      "bufferView": 2,
      "componentType": 5126,
      "count": 80,
      "max": [
        0.6553546190261841,
        -2.3674755096435547,
        -1.860914707183838
      ],
      "min": [
        -0.6008803844451904,
        -2.850614309310913,
        -2.668872833251953
      ],
      "type": "VEC3"
    },
    {
      "bufferView": 2,
      "byteOffset": 960,
      "componentType": 5126,
      "count": 80,
      "max": [
        0.9182794094085693,
        -0.38966837525367737,
        0.642970085144043
      ],
      "min": [
        -0.918290376663208,
        -0.7907175421714783,
        -0.7614926695823669
      ],
      "type": "VEC3"
    },
    {
      "bufferView": 1,
      "componentType": 5126,
      "count": 80,
      "max": [
        1.0,
        1.0
      ],
      "min": [
        3.91155481338501e-07,
        0.37017083168029785
      ],
      "type": "VEC2"
    },
    {
      "bufferView": 0,
      "componentType": 5125,
      "count": 216,
      "type": "SCALAR"
    },
    {
      "bufferView": 2,
      "byteOffset": 1920,
      "componentType": 5126,
      "count": 1651,
      "max": [
        0.9221506714820862,
        -2.656949281692505,
        -1.2130346298217773
      ],
      "min": [
        -0.8682847023010254,
        -4.729646682739258,
        -2.9669151306152344
      ],
      "type": "VEC3"
    },
    {
      "bufferView": 2,
      "byteOffset": 21732,
      "componentType": 5126,
      "count": 1651,
      "max": [
        0.9999377727508545,
        0.9958536624908447,
        0.9977547526359558
      ],
      "min": [
        -0.9999377727508545,
        -0.9932385087013245,
        -0.9960300922393799
      ],
      "type": "VEC3"
    },
    {
      "bufferView": 1,
      "byteOffset": 640,
      "componentType": 5126,
      "count": 1651,
      "max": [
        1.0,
        1.0
      ],
      "min": [
        3.91155481338501e-07,
        0.0
      ],
      "type": "VEC2"
    },
    {
      "bufferView": 0,
      "byteOffset": 864,
      "componentType": 5125,
      "count": 8730,
      "type": "SCALAR"
    },
    {
      "bufferView": 2,
      "byteOffset": 41544,
      "componentType": 5126,
      "count": 1433,
      "max": [
        1.0773319005966187,
        26.84119415283203,
        6.422188758850098
      ],
      "min": [
        -1.251509189605713,
        -4.464832782745361,
        -1.3424344062805176
      ],
      "type": "VEC3"
    },
    {
      "bufferView": 2,
      "byteOffset": 58740,
      "componentType": 5126,
      "count": 1433,
      "max": [
        0.9999443292617798,
        0.9989373087882996,
        0.9957224130630493
      ],
      "min": [
        -0.9999979734420776,
        -0.9986985325813293,
        -0.9958961606025696
      ],
      "type": "VEC3"
    },
    {
      "bufferView": 1,
      "byteOffset": 13848,
      "componentType": 5126,
      "count": 1433,
      "max": [
        1.0,
        1.0
      ],
      "min": [
        3.91155481338501e-07,
        0.01000000536441803
      ],
      "type": "VEC2"
    },
    {
      "bufferView": 0,
      "byteOffset": 35784,
      "componentType": 5125,
      "count": 7428,
      "type": "SCALAR"
    }
  ],
  "asset": {
    "extras": {
      "author": "calp1 (https://sketchfab.com/calp1)",
      "license": "CC-BY-4.0 (http://creativecommons.org/licenses/by/4.0/)",
      "source": "https://sketchfab.com/3d-models/free-streetlight-23c7b0d12c2a4739bff7b2e94a0a1f47",
      "title": "Free Streetlight"
    },
    "generator": "Sketchfab-12.65.0",
    "version": "2.0"
  },
  "bufferViews": [
    {
      "buffer": 0,
      "byteLength": 65496,
      "name": "floatBufferViews",
      "target": 34963
    },
    {
      "buffer": 0,
      "byteLength": 25312,
      "byteOffset": 65496,
      "byteStride": 8,
      "name": "floatBufferViews",
      "target": 34962
    },
    {
      "buffer": 0,
      "byteLength": 75936,
      "byteOffset": 90808,
      "byteStride": 12,
      "name": "floatBufferViews",
      "target": 34962
    }
  ],
  "buffers": [
    {
      "byteLength": 166744,
      "uri": "scene.bin"
    }
  ],
  "materials": [
    {
      "doubleSided": true,
      "emissiveFactor": [
        1.0,
        1.0,
        1.0
      ],
      "name": "Material.003"
    },
    {
      "doubleSided": true,
      "name": "Material.002",
      "pbrMetallicRoughness": {
        "metallicFactor": 0.218182,
        "roughnessFactor": 0.777273
      }
    },
    {
      "doubleSided": true,
      "name": "Material.001",
      "pbrMetallicRoughness": {
        "metallicFactor": 0.568182,
        "roughnessFactor": 0.622727
      }
    }
  ],
  "meshes": [
    {
      "name": "Object_0",
      "primitives": [
        {
          "attributes": {
            "NORMAL": 1,
            "POSITION": 0,
            "TEXCOORD_0": 2
          },
          "indices": 3,
          "material": 0,
          "mode": 4
        }
      ]
    },
    {
      "name": "Object_1",
      "primitives": [
        {
          "attributes": {
            "NORMAL": 5,
            "POSITION": 4,
            "TEXCOORD_0": 6
          },
          "indices": 7,
          "material": 1,
          "mode": 4
        }
      ]
    },
    {
      "name": "Object_2",
      "primitives": [
        {
          "attributes": {
            "NORMAL": 9,
            "POSITION": 8,
            "TEXCOORD_0": 10
          },
          "indices": 11,
          "material": 2,
          "mode": 4
        }
      ]
    }
  ],
  "nodes": [
    {
      "children": [
        1
      ],
      "matrix": [
        -0.6597684025764465,
        1.668596407878052e-16,
        -0.7514690160751343,
        0.0,
        -0.7514690160751343,
        -1.4649801429210608e-16,
        0.6597684025764465,
        0.0,
        0.0,
        1.0,
        2.220446049250313e-16,
        0.0,
        -0.41971278190612793,
        -0.004272062797099492,
        0.631936252117157,
        1.0
      ],
      "name": "Sketchfab_model"
    },
    {
      "children": [
        2
      ],
      "name": "root"
    },
    {
      "children": [
        3
      ],
      "matrix": [
        1.0,
        0.0,
        0.0,
        0.0,
        0.0,
        2.220446049250313e-16,
        1.0,
        0.0,
        0.0,
        -1.0,
        2.220446049250313e-16,
        0.0,
        0.0,
        0.0,
        0.0,
        1.0
      ],
      "name": "GLTF_SceneRootNode"
    },
    {
      "children": [
        4,
        5,
        6
      ],
      "matrix": [
        -0.14749089365318466,
        0.000246131980337169,
        -0.0005999786167606148,
        0.0,
        -0.00011247900364513299,
        -0.14922656129262224,
        -0.03356753011258422,
        0.0,
        -0.0016455228982793478,
        -0.08330419898123835,
        0.3703395573129226,
        0.0,
        0.0,
        0.0,
        0.0,
        1.0
      ],
      "name": "Cube.001_0"
    },
    {
      "mesh": 0,
      "name": "Object_4"
    },
    {
      "mesh": 1,
      "name": "Object_5"
    },
    {
      "mesh": 2,
      "name": "Object_6"
    }
  ],
  "scene": 0,
  "scenes": [
    {
      "name": "Sketchfab_Scene",
      "nodes": [
        0
      ]
    }
  ]
}
