{
  "accessors": [
    {
      "bufferView": 2,
      "componentType": 5126,
      "count": 567,
      "max": [
        0.6232759952545166,
        0.574533998966217,
        2.80505108833313
      ],
      "min": [
        -0.6232759952545166,
        -0.574533998966217,
        0.22082500159740448
      ],
      "type": "VEC3"
    },
    {
      "bufferView": 2,
      "byteOffset": 6804,
      "componentType": 5126,
      "count": 567,
      "max": [
        0.9916079044342041,
        0.996587336063385,
        0.9922643303871155
      ],
      "min": [
        -0.9995323419570923,
        -0.9894390106201172,
        -0.8955075144767761
      ],
      "type": "VEC3"
    },
    {
      "bufferView": 1,
      "componentType": 5126,
      "count": 567,
      "max": [
        0.11407399922609329,
        0.6119959950447083
      ],
      "min": [
        0.07500799745321274,
        0.5729290246963501
      ],
      "type": "VEC2"
    },
    {
      "bufferView": 0,
      "componentType": 5125,
      "count": 744,
      "type": "SCALAR"
    }
  ],
  "asset": {
    "extras": {
      "author": "Alok (https://sketchfab.com/alok.aks50)",
      "license": "CC-BY-4.0 (http://creativecommons.org/licenses/by/4.0/)",
      "source": "https://sketchfab.com/3d-models/crystle-b8cdfa7faf164bd8b0c9e77c37101f03",
      "title": "Crystle"
    },
    "generator": "Sketchfab-12.68.0",
    "version": "2.0"
  },
  "bufferViews": [
    {
      "buffer": 0,
      "byteLength": 2976,
      "name": "floatBufferViews",
      "target": 34963
    },
    {
      "buffer": 0,
      "byteLength": 4536,
      "byteOffset": 2976,
      "byteStride": 8,
      "name": "floatBufferViews",
      "target": 34962
    },
    {
      "buffer": 0,
      "byteLength": 13608,
      "byteOffset": 7512,
      "byteStride": 12,
      "name": "floatBufferViews",
      "target": 34962
    }
  ],
  "buffers": [
    {
      "byteLength": 21120,
      "uri": "scene.bin"
    }
  ],
  "images": [
    {
      "uri": "textures/Scene_-_Root_baseColor.png"
    },
    {
      "uri": "textures/Scene_-_Root_emissive.png"
    }
  ],
  "materials": [
    {
      "doubleSided": true,
      "emissiveFactor": [
        0.5,
        0.5,
        0.5
      ],
      "emissiveTexture": {
        "index": 1
      },
      "name": "Scene_-_Root",
      "pbrMetallicRoughness": {
        "baseColorTexture": {
          "index": 0
        },
        "metallicFactor": 0.0
      }
    }
  ],
  "meshes": [
    {
      "name": "Object_0",
      "primitives": [
        {
          "attributes": {
            "NORMAL": 1,
            "POSITION": 0,
            "TEXCOORD_0": 2
          },
          "indices": 3,
          "material": 0,
          "mode": 4
        }
      ]
    }
  ],
  "nodes": [
    {
      "children": [
        1
      ],
      "matrix": [
        1.0,
        0.0,
        0.0,
        0.0,
        0.0,
        2.220446049250313e-16,
        -1.0,
        0.0,
        0.0,
        1.0,
        2.220446049250313e-16,
        0.0,
        0.0,
        0.0,
        0.0,
        1.0
      ],
      "name": "Sketchfab_model"
    },
    {
      "children": [
        2
      ],
      "name": "1ef579fc736e40319e33d2e6af5afae3.obj.cleaner.materialmerger.gles"
    },
    {
      "mesh": 0,
      "name": "Object_2"
    }
  ],
  "samplers": [
    {
      "magFilter": 9729,
      "minFilter": 9987,
      "wrapS": 10497,
      "wrapT": 10497
    }
  ],
  "scene": 0,
  "scenes": [
    {
      "name": "Sketchfab_Scene",
      "nodes": [
        0
      ]
    }
  ],
  "textures": [
    {
      "sampler": 0,
      "source": 0
    },
    {
      "sampler": 0,
      "source": 1
    }
  ]
}
